HIERARCHY
ROOT hip
{
  OFFSET 0 0 0
  CHANNELS 6 Xposition Yposition Zposition Zrotation Yrotation Xrotation
  JOINT abdomen
  {
    OFFSET 0 20.6881 -0.73152
    CHANNELS 3 Zrotation Xrotation Yrotation
    JOINT chest
    {
      OFFSET 0 11.7043 -0.48768
      CHANNELS 3 Zrotation Xrotation Yrotation
      JOINT neck
      {
        OFFSET 0 22.1894 -2.19456
        CHANNELS 3 Zrotation Xrotation Yrotation
        JOINT head
        {
          OFFSET -0.24384 7.07133 1.2192
          CHANNELS 3 Zrotation Xrotation Yrotation
          JOINT leftEye
          {
            OFFSET 4.14528 8.04674 8.04672
            CHANNELS 3 Zrotation Xrotation Yrotation
            End Site
            {
              OFFSET 1 0 0
            }
          }
          JOINT rightEye
          {
            OFFSET -3.6576 8.04674 8.04672
            CHANNELS 3 Zrotation Xrotation Yrotation
            End Site
            {
              OFFSET 1 0 0
            }
          }
        }
      }
      JOINT rCollar
      {
        OFFSET -2.68224 19.2634 -4.8768
        CHANNELS 3 Zrotation Xrotation Yrotation
        JOINT rShldr
        {
          OFFSET -8.77824 -1.95073 1.46304
          CHANNELS 3 Zrotation Xrotation Yrotation
          JOINT rForeArm
          {
            OFFSET -28.1742 -1.7115 0.48768
            CHANNELS 3 Zrotation Xrotation Yrotation
            JOINT rHand
            {
              OFFSET -22.5879 0.773209 7.07136
              CHANNELS 3 Zrotation Xrotation Yrotation
              JOINT rThumb1
              {
                OFFSET -1.2192 -0.487915 3.41376
                CHANNELS 3 Zrotation Xrotation Yrotation
                JOINT rThumb2
                {
                  OFFSET -3.37035 -0.52449 3.41376
                  CHANNELS 3 Zrotation Xrotation Yrotation
                  End Site
                  {
                    OFFSET -1.78271 -1.18214 1.43049
                  }
                }
              }
              JOINT rIndex1
              {
                OFFSET -7.75947 0.938293 5.60832
                CHANNELS 3 Zrotation Xrotation Yrotation
                JOINT rIndex2
                {
                  OFFSET -2.54057 -0.884171 1.56538
                  CHANNELS 3 Zrotation Xrotation Yrotation
                  End Site
                  {
                    OFFSET -1.62519 -0.234802 1.16502
                  }
                }
              }
              JOINT rMid1
              {
                OFFSET -8.24714 1.18213 3.41376
                CHANNELS 3 Zrotation Xrotation Yrotation
                JOINT rMid2
                {
                  OFFSET -3.10165 -0.590103 1.0647
                  CHANNELS 3 Zrotation Xrotation Yrotation
                  End Site
                  {
                    OFFSET -2.48547 -0.328903 0.83742
                  }
                }
              }
              JOINT rRing1
              {
                OFFSET -8.82822 0.546677 1.51678
                CHANNELS 3 Zrotation Xrotation Yrotation
                JOINT rRing2
                {
                  OFFSET -2.60934 -0.819778 -0.0198488
                  CHANNELS 3 Zrotation Xrotation Yrotation
                  End Site
                  {
                    OFFSET -2.33842 -0.294052 0.168128
                  }
                }
              }
              JOINT rPinky1
              {
                OFFSET -8.27202 -0.0477905 -0.4584
                CHANNELS 3 Zrotation Xrotation Yrotation
                JOINT rPinky2
                {
                  OFFSET -1.82734 -0.647385 -0.700984
                  CHANNELS 3 Zrotation Xrotation Yrotation
                  End Site
                  {
                    OFFSET -1.69225 -0.51767 -0.607171
                  }
                }
              }
            }
          }
        }
      }
      JOINT lCollar
      {
        OFFSET 2.68224 19.2634 -4.8768
        CHANNELS 3 Zrotation Xrotation Yrotation
        JOINT lShldr
        {
          OFFSET 8.77824 -1.95073 1.46304
          CHANNELS 3 Zrotation Xrotation Yrotation
          JOINT lForeArm
          {
            OFFSET 28.1742 -1.7115 0.48768
            CHANNELS 3 Zrotation Xrotation Yrotation
            JOINT lHand
            {
              OFFSET 22.5879 0.773209 7.07136
              CHANNELS 3 Zrotation Xrotation Yrotation
              JOINT lThumb1
              {
                OFFSET 1.2192 -0.487915 3.41376
                CHANNELS 3 Zrotation Xrotation Yrotation
                JOINT lThumb2
                {
                  OFFSET 3.37035 -0.52449 3.41376
                  CHANNELS 3 Zrotation Xrotation Yrotation
                  End Site
                  {
                    OFFSET 1.78271 -1.18214 1.43049
                  }
                }
              }
              JOINT lIndex1
              {
                OFFSET 7.75947 0.938293 5.60832
                CHANNELS 3 Zrotation Xrotation Yrotation
                JOINT lIndex2
                {
                  OFFSET 2.54057 -0.884171 1.56538
                  CHANNELS 3 Zrotation Xrotation Yrotation
                  End Site
                  {
                    OFFSET 1.62519 -0.234802 1.16502
                  }
                }
              }
              JOINT lMid1
              {
                OFFSET 8.24714 1.18213 3.41376
                CHANNELS 3 Zrotation Xrotation Yrotation
                JOINT lMid2
                {
                  OFFSET 3.10165 -0.590103 1.0647
                  CHANNELS 3 Zrotation Xrotation Yrotation
                  End Site
                  {
                    OFFSET 2.48547 -0.328903 0.83742
                  }
                }
              }
              JOINT lRing1
              {
                OFFSET 8.82822 0.546677 1.51678
                CHANNELS 3 Zrotation Xrotation Yrotation
                JOINT lRing2
                {
                  OFFSET 2.60934 -0.819778 -0.0198488
                  CHANNELS 3 Zrotation Xrotation Yrotation
                  End Site
                  {
                    OFFSET 2.33842 -0.294052 0.168128
                  }
                }
              }
              JOINT lPinky1
              {
                OFFSET 8.27202 -0.0477905 -0.4584
                CHANNELS 3 Zrotation Xrotation Yrotation
                JOINT lPinky2
                {
                  OFFSET 1.82734 -0.647385 -0.700984
                  CHANNELS 3 Zrotation Xrotation Yrotation
                  End Site
                  {
                    OFFSET 1.69225 -0.51767 -0.607171
                  }
                }
              }
            }
          }
        }
      }
    }
  }
  JOINT rButtock
  {
    OFFSET -8.77824 4.35084 1.2192
    CHANNELS 3 Zrotation Xrotation Yrotation
    JOINT rThigh
    {
      OFFSET 0 -1.70687 -2.19456
      CHANNELS 3 Zrotation Xrotation Yrotation
      JOINT rShin
      {
        OFFSET 0 -36.8199 0.73152
        CHANNELS 3 Zrotation Xrotation Yrotation
        JOINT rFoot
        {
          OFFSET 0.73152 -45.1104 -5.12064
          CHANNELS 3 Zrotation Xrotation Yrotation
          End Site
          {
            OFFSET -1.1221 -3.69964 12.103
          }
        }
      }
    }
  }
  JOINT lButtock
  {
    OFFSET 8.77824 4.35084 1.2192
    CHANNELS 3 Zrotation Xrotation Yrotation
    JOINT lThigh
    {
      OFFSET 0 -1.70687 -2.19456
      CHANNELS 3 Zrotation Xrotation Yrotation
      JOINT lShin
      {
        OFFSET 0 -36.8199 0.73152
        CHANNELS 3 Zrotation Xrotation Yrotation
        JOINT lFoot
        {
          OFFSET -0.73152 -45.1104 -5.12064
          CHANNELS 3 Zrotation Xrotation Yrotation
          End Site
          {
            OFFSET 1.1221 -3.69964 12.103
          }
        }
      }
    }
  }
}
MOTION
Frames:	5
Frame Time:	0.03333
1.6760000000000002 62.6368 6.4375 -170.251301 33.882206 -173.522381 5.117176 10.106802 -0.0 0.167553 -6.285131 11.981063 14.115712 19.739276 87.9837 -29.029571 9.533576 -75.453144 -7.551207 1.926899 -28.593047 -11.063181 0.351233 -3.625535 1.00405 -0.789462 -1.537175 -55.149781 -66.202251 -117.203809 2.073236 -67.188399 -136.36707 164.154455 -29.390466 141.09054 -0.09758 -6.36509 -1.002559 15.040831 -21.438746 -14.626831 0.597406 -10.146004 -4.992312 -175.373194 -36.238632 95.937393 -7.551585 27.110213 2.090021 178.686393 -40.504101 141.720243 -144.989432 1.784047 179.861421 4.927984 0.367298 -11.56983 -5.219955 18.5443 6.450429 5.358321 -50.679129 -15.903455 145.72662 26.020474 -148.521738 56.114219 14.338949 -22.921309 -179.845785 5.960545 79.485429 7.420023 0.728983 3.261062 16.155749 22.715507 -8.766422 45.493199 19.045666 -35.471252 148.298253 -31.916111 -135.737566 153.644782 -44.859137 -141.944608 -169.512405 -66.110988 -129.912483 156.443465 2.576147 -133.585723 11.787614 -1.736696 -0.00913 -23.01944 7.265568 -0.345112 116.258728 -42.812563 109.074713 -21.486756 44.187755 10.304857 169.396184 80.515002 0.0 -159.778095 74.257051 -9.861321 10.676195 58.571124 -113.67182 54.381639 28.810534 49.238324 10.146884 1.919319 10.330688 27.245633 -53.898514 -15.610321 -51.905613 30.991386 -57.498688 105.341753 -31.986957 -152.74645
1.8079 62.55 6.261500000000001 -169.744346 33.012524 -173.19153 5.857966 9.421398 -0.720582 0.134965 -6.15585 12.581762 -4.781791 28.18068 -116.930274 30.245732 23.513242 123.275667 -7.147749 1.689966 -26.573273 -10.938818 0.293853 -3.068222 -149.406978 22.810965 156.119082 -63.375214 17.292184 54.504204 21.784761 -24.153072 -128.586719 171.111563 -10.504099 145.103089 165.97076 -24.850905 88.363615 -176.237818 -10.625631 104.309006 -150.148313 -3.422616 120.196875 177.88019 -46.230991 124.073926 0.359315 2.235567 -4.602095 -162.445976 7.820515 139.403171 1.445815 1.783593 0.431588 -154.972929 -24.197983 170.817872 -165.145606 43.294657 -148.248191 -21.836061 -18.975089 8.011937 163.240984 -49.574984 -164.89055 8.044739 20.230548 42.497005 -55.5015 -71.319782 85.997361 171.271448 16.675433 -139.285113 33.223147 31.180797 -18.920445 -16.301065 -28.831992 1.124128 170.059919 -77.731953 -130.690127 -147.900412 -79.651275 -71.249803 149.390414 13.037014 -135.534755 14.16488 50.396746 -17.311192 157.281355 -0.035627 179.661827 85.693577 -77.987633 93.867553 5.4683 0.732828 -2.572673 139.958938 40.130187 147.02387 44.57381 19.351909 44.771364 -50.966354 19.199581 -46.494666 -0.995996 49.396859 1.836314 46.708076 -49.966885 -12.401616 -169.892884 75.12076 -10.450174 -152.911136 13.794394 86.167233 62.560186 -5.071532 54.589288 -131.5197 3.064796 138.801706
1.9398 62.1032 6.3321000000000005 -169.057108 31.261537 -172.443454 4.464982 6.776851 85.240356 -4.195542 -2.666044 -72.802397 -6.653569 22.287864 -73.893399 31.535724 1.71795 85.356923 -7.125553 1.635576 -25.824582 -11.598337 0.272495 -2.682567 -11.949761 43.60845 14.165226 -107.290013 -1.824543 158.159952 -164.821371 17.187827 -83.120245 -4.598476 20.678123 0.759157 -8.574841 1.91746 0.056496 -115.720491 -10.026853 106.385449 34.996686 -63.992153 1.674004 24.907802 3.960521 -11.286558 -165.161232 -27.493469 149.482467 -172.958248 -42.7893 143.142912 -66.614517 71.83404 84.734474 2.388062 -21.6376 -3.329445 -86.965042 -50.389162 -74.778107 -120.012979 -8.456524 -106.926202 16.781362 41.089588 -20.13923 -17.074028 22.049879 -63.585317 69.656772 -68.714587 -30.160163 -1.601279 -27.097076 3.960917 -76.644199 -45.893915 -22.209712 149.896001 -1.926829 -103.543819 84.670751 52.774313 -76.478155 7.778788 -17.270446 6.907489 160.34153 -10.326236 -140.597814 28.706909 55.995349 -30.22335 48.919155 66.573609 -52.656715 159.242859 -21.688262 -165.104736 28.710611 -38.290667 20.785865 138.809389 17.686807 132.849809 44.575999 17.712734 43.644523 -49.262505 18.383478 -87.624746 -36.911607 35.704757 77.215962 -95.613978 41.690566 -0.273701 164.59858 75.38527 10.467217 -144.066882 9.72211 -76.884052 -50.023846 17.711436 77.878221 81.396819 -17.264691 -32.418998
2.0374 61.712 6.4898 -168.50948 30.44673 -171.956669 5.353771 6.548567 83.49647 -4.361441 -2.757142 -70.794146 10.052368 14.716985 43.281848 -20.222012 -11.030909 -35.210829 -7.363217 1.626106 -24.875222 -10.361501 0.2492 -2.747954 3.347777 -26.601235 -7.047295 -110.737303 -21.394099 -141.8504 -172.228255 -6.190609 -79.140626 -6.952789 28.085558 1.637468 -178.183811 -9.591818 90.066336 -157.02189 3.178469 83.440775 -114.745061 35.864481 90.170783 -2.884185 -3.354434 -1.21374 -160.233382 -6.342479 146.238025 1.486217 15.189389 1.843896 1.173375 -1.989906 1.24766 -153.270811 -2.564101 169.208519 -93.325797 -48.515833 -81.180717 56.65704 46.199997 -34.519663 33.796045 55.934705 -37.08352 -83.419459 -22.402709 -73.071069 -178.060876 12.081763 -44.429132 173.932146 9.248096 -140.079512 175.759408 -22.140514 -86.335307 -99.165027 -64.100173 -65.192393 35.138239 48.967311 -27.810645 163.88575 15.443953 -96.697059 160.26205 -9.194895 -140.232837 36.376658 59.666838 -36.724695 157.555276 -0.259113 -179.721712 81.804239 87.369142 -82.092618 150.130215 10.407639 146.122142 37.242923 -40.801806 20.222137 -79.607513 37.963564 -55.443579 77.460759 44.030429 19.708609 -38.232311 52.100312 -110.571808 175.17865 -11.679677 -116.406735 178.740559 75.916174 0.0 -148.083974 9.352858 -88.417286 -61.66321 12.039946 178.731322 0.699567 23.52083 -92.709608
2.0618000000000003 61.5259 6.6345 -168.049215 29.832962 -171.577349 10.422478 7.243992 -55.568483 3.524913 -5.02322 68.414555 -6.268506 21.584758 -68.074479 30.013597 -1.307175 79.906792 -7.951506 1.720875 -24.387125 -9.188715 0.161224 -2.006088 0.823486 1.230715 -1.460544 -107.965116 -19.660653 -164.94424 -0.328125 -7.957515 -135.771062 161.364855 -32.380468 140.953489 81.157612 -50.903254 36.082232 -37.59363 -85.22632 -77.025923 -167.519554 -31.104235 122.752573 -146.929796 32.219572 118.095441 -161.532499 -11.16349 146.417633 -125.361803 51.366286 118.902007 -142.977658 2.051614 178.54914 12.678173 29.490367 -7.975169 -83.946152 -48.217351 -71.475008 165.770542 49.608812 -101.208343 -17.786519 -88.62973 4.0942 -121.22858 46.537135 91.670319 171.269506 16.348593 -42.203573 177.350159 -1.709563 -140.998059 -70.731531 -42.898952 -19.842113 163.627303 -29.963042 -119.997106 91.851852 50.121697 -83.453016 8.504285 -16.96834 9.525861 6.002319 16.682817 -7.961931 -1.94467 -20.427384 2.648912 97.090773 -72.488939 101.928818 107.331023 -63.480361 132.311056 -1.258954 42.055377 -18.908359 132.67364 43.694504 160.103237 0.511764 -4.528288 6.454747 -3.90495 0.867983 -180.0 -27.09657 -52.786233 -101.51082 -79.800134 -16.621617 -147.836919 177.51831 76.160775 1.712289 -150.078259 8.011977 103.6136 55.106208 -15.629077 -104.072905 -142.6929 -39.911809 5.934804
